<?xml version="1.0" standalone="no"?>
<!DOCTYPE svg PUBLIC "-//W3C//DTD SVG 20010904//EN"
 "http://www.w3.org/TR/2001/REC-SVG-20010904/DTD/svg10.dtd">
<svg version="1.0" xmlns="http://www.w3.org/2000/svg"
 width="2000.000000pt" height="2000.000000pt" viewBox="0 0 2000.000000 2000.000000"
 preserveAspectRatio="xMidYMid meet">

<g transform="translate(0.000000,2000.000000) scale(0.100000,-0.100000)"
fill="#292929" stroke="#292929" stroke-width="100">
<path d="M4890 17799 c-944 -81 -1777 -598 -2265 -1404 -174 -288 -307 -635
-369 -964 -62 -327 -62 -770 -1 -1091 155 -806 634 -1506 1327 -1937 353 -220
710 -350 1153 -420 103 -16 340 -18 3657 -20 l3548 -3 3 -3538 c3 -3206 5
-3548 19 -3654 57 -403 161 -728 339 -1052 296 -540 731 -956 1284 -1226 612
-300 1301 -377 1960 -220 808 192 1481 704 1887 1435 57 102 74 138 135 280
102 238 178 528 208 799 22 193 22 10234 1 10426 -39 344 -135 665 -292 980
-145 290 -298 505 -522 734 -470 479 -1027 759 -1722 863 -108 16 -442 18
-5185 19 -2788 1 -5113 -2 -5165 -7z"/>
</g>
</svg>
